<svg width="9" height="9" viewBox="0 0 9 9" fill="none" xmlns="http://www.w3.org/2000/svg">
<path d="M8.28516 4.24023C8.28516 3.0918 7.88867 2.14388 7.0957 1.39648C6.36654 0.703776 5.46419 0.357422 4.38867 0.357422C3.1582 0.357422 2.16471 0.790365 1.4082 1.65625C0.788411 2.3763 0.478516 3.23763 0.478516 4.24023C0.478516 5.39779 0.879557 6.35026 1.68164 7.09766C2.41992 7.79036 3.32227 8.13672 4.38867 8.13672C5.60091 8.13672 6.58073 7.70833 7.32812 6.85156C7.96615 6.1224 8.28516 5.25195 8.28516 4.24023ZM0.902344 4.24023C0.902344 3.13737 1.2806 2.2487 2.03711 1.57422C2.67513 1.01823 3.45898 0.740234 4.38867 0.740234C5.51888 0.740234 6.41667 1.15495 7.08203 1.98438C7.59245 2.6224 7.84766 3.37435 7.84766 4.24023C7.84766 5.31576 7.47852 6.19531 6.74023 6.87891C6.0931 7.46224 5.30924 7.75391 4.38867 7.75391C3.24935 7.75391 2.34701 7.34375 1.68164 6.52344C1.16211 5.8763 0.902344 5.11523 0.902344 4.24023ZM4.45703 1.7793C3.60938 1.7793 2.95312 2.08008 2.48828 2.68164C2.16016 3.11914 1.99609 3.64323 1.99609 4.25391C1.99609 5.16536 2.34245 5.83984 3.03516 6.27734C3.44531 6.53255 3.9056 6.66016 4.41602 6.66016C5.24544 6.66016 5.86068 6.35026 6.26172 5.73047C6.29818 5.65755 6.33464 5.58919 6.37109 5.52539L6.05664 5.38867C5.75586 5.97201 5.29557 6.26823 4.67578 6.27734C4.09245 6.27734 3.71875 5.8444 3.55469 4.97852C3.50911 4.71419 3.48633 4.43164 3.48633 4.13086C3.48633 3.13737 3.68685 2.50391 4.08789 2.23047C4.19727 2.15755 4.31576 2.12109 4.44336 2.12109C4.72591 2.12109 4.89453 2.27148 4.94922 2.57227C4.95833 2.61784 4.96745 2.69076 4.97656 2.79102C5.03125 3.17383 5.14062 3.41081 5.30469 3.50195C5.42318 3.57487 5.57357 3.61133 5.75586 3.61133C6.12956 3.61133 6.33919 3.46094 6.38477 3.16016C6.39388 3.1237 6.39844 3.08724 6.39844 3.05078C6.39844 2.59505 6.11589 2.24414 5.55078 1.99805C5.21354 1.85221 4.84896 1.7793 4.45703 1.7793Z" fill="white"/>
</svg>
